<?xml version="1.0" encoding="UTF-8" standalone="no"?>
<!-- Created with Inkscape (http://www.inkscape.org/) -->

<svg
   width="16mm"
   height="16mm"
   viewBox="0 0 16 16"
   version="1.1"
   id="svg1"
   xmlns="http://www.w3.org/2000/svg"
   xmlns:svg="http://www.w3.org/2000/svg">
  <defs
     id="defs1" />
  <g
     id="layer1">
    <path
       id="rect1"
       style="color:#000000;font-style:normal;font-variant:normal;font-weight:normal;font-stretch:normal;font-size:medium;line-height:normal;font-family:sans-serif;font-variant-ligatures:normal;font-variant-position:normal;font-variant-caps:normal;font-variant-numeric:normal;font-variant-alternates:normal;font-variant-east-asian:normal;font-feature-settings:normal;font-variation-settings:normal;text-indent:0;text-align:start;text-decoration-line:none;text-decoration-style:solid;text-decoration-color:#000000;letter-spacing:normal;word-spacing:normal;text-transform:none;writing-mode:lr-tb;direction:ltr;text-orientation:mixed;dominant-baseline:auto;baseline-shift:baseline;text-anchor:start;white-space:normal;shape-padding:0;shape-margin:0;inline-size:0;clip-rule:nonzero;display:inline;overflow:visible;visibility:visible;isolation:auto;mix-blend-mode:normal;color-interpolation:sRGB;color-interpolation-filters:linearRGB;solid-color:#000000;solid-opacity:1;vector-effect:none;fill:#ffffff;fill-opacity:1;fill-rule:nonzero;stroke:none;stroke-linecap:round;stroke-linejoin:bevel;stroke-miterlimit:4;stroke-dasharray:none;stroke-dashoffset:0;stroke-opacity:1;-inkscape-stroke:none;color-rendering:auto;image-rendering:auto;shape-rendering:auto;text-rendering:auto;enable-background:accumulate;stop-color:#000000;stop-opacity:1"
       d="M 6.4998617,2.4965132 V 6.4998617 H 2.4965132 A 0.4966353,0.4966353 135 0 0 1.9998779,6.996497 V 9.00356 A 0.4966353,0.4966353 45 0 0 2.4965132,9.5001953 H 6.4998617 V 13.503544 A 0.4966353,0.4966353 45 0 0 6.996497,14.000179 H 9.00356 A 0.4966353,0.4966353 135 0 0 9.5001953,13.503544 V 9.5001953 H 13.503544 A 0.4966353,0.4966353 135 0 0 14.000179,9.00356 V 6.996497 A 0.4966353,0.4966353 45 0 0 13.503544,6.4998617 H 9.5001953 V 2.4965132 A 0.4966353,0.4966353 45 0 0 9.00356,1.9998779 H 6.996497 A 0.4966353,0.4966353 135 0 0 6.4998617,2.4965132 Z"
       transform="matrix(0.66664994,0,0,0.66664994,2.6667815,2.6667815)" />
  </g>
</svg>
