<?xml version="1.0" encoding="UTF-8" standalone="no"?>
<!-- Created with Inkscape (http://www.inkscape.org/) -->

<svg
   width="16mm"
   height="16mm"
   viewBox="0 0 16 16"
   version="1.1"
   id="svg1"
   xmlns="http://www.w3.org/2000/svg"
   xmlns:svg="http://www.w3.org/2000/svg">
  <defs
     id="defs1" />
  <path
     id="rect1"
     style="color:#000000;font-style:normal;font-variant:normal;font-weight:normal;font-stretch:normal;font-size:medium;line-height:normal;font-family:sans-serif;font-variant-ligatures:normal;font-variant-position:normal;font-variant-caps:normal;font-variant-numeric:normal;font-variant-alternates:normal;font-variant-east-asian:normal;font-feature-settings:normal;font-variation-settings:normal;text-indent:0;text-align:start;text-decoration-line:none;text-decoration-style:solid;text-decoration-color:#000000;letter-spacing:normal;word-spacing:normal;text-transform:none;writing-mode:lr-tb;direction:ltr;text-orientation:mixed;dominant-baseline:auto;baseline-shift:baseline;text-anchor:start;white-space:normal;shape-padding:0;shape-margin:0;inline-size:0;clip-rule:nonzero;display:inline;overflow:visible;visibility:visible;isolation:auto;mix-blend-mode:normal;color-interpolation:sRGB;color-interpolation-filters:linearRGB;solid-color:#000000;solid-opacity:1;vector-effect:none;fill:#ffffff;fill-opacity:1;fill-rule:nonzero;stroke:none;stroke-width:0.66665;stroke-linecap:round;stroke-linejoin:bevel;stroke-miterlimit:4;stroke-dasharray:none;stroke-dashoffset:0;stroke-opacity:1;-inkscape-stroke:none;color-rendering:auto;image-rendering:auto;shape-rendering:auto;text-rendering:auto;enable-background:accumulate;stop-color:#000000;stop-opacity:1"
     d="M 5.999828,0.6621638 V 5.999828 H 0.6621638 A 0.6621638,0.6621638 0 0 0 0,6.6619918 V 9.3380086 A 0.6621638,0.6621638 0 0 0 0.6621638,10.000172 H 5.999828 v 5.337665 A 0.6621638,0.6621638 0 0 0 6.6619918,16 h 2.6760168 a 0.6621638,0.6621638 0 0 0 0.6621634,-0.662163 v -5.337665 h 5.337665 A 0.6621638,0.6621638 0 0 0 16,9.3380086 V 6.6619918 A 0.6621638,0.6621638 0 0 0 15.337837,5.999828 H 10.000172 V 0.6621638 A 0.6621638,0.6621638 0 0 0 9.3380086,0 H 6.6619918 A 0.6621638,0.6621638 0 0 0 5.999828,0.6621638 Z" />
</svg>
