<?xml version="1.0" encoding="UTF-8" standalone="no"?>
<svg
   version="1.1"
   width="512"
   height="512"
   style="clip-rule:evenodd;fill-rule:evenodd;image-rendering:optimizeQuality;shape-rendering:geometricPrecision;text-rendering:geometricPrecision"
   id="svg2"
   xml:space="preserve"
   xmlns="http://www.w3.org/2000/svg"
   xmlns:svg="http://www.w3.org/2000/svg"><defs
     id="defs2" /><rect
     x="0"
     y="0"
     width="512"
     height="512"
     fill="#ff4c00"
     id="rect1" /><path
     fill="#ffffff"
     stroke="#ffffff"
     stroke-width="0.5"
     d="m 189.08,303 c -0.14,-1.12 0.34,-1.71 1.45,-1.77 21.54,-0.05 43.07,0.03 64.6,0.24 0.42,0.24 0.66,0.61 0.72,1.1 4.13,40.45 49.82,45.56 81.19,35 21.03,-8.62 22.4,-38.33 2.64,-48.83 -5.05,-2.34 -10.35,-3.86 -15.87,-4.55 -19.44,-2.15 -38.87,-4.28 -58.31,-6.38 -43.03,-5.27 -73.25,-31.86 -71.63,-77.31 0.52,-48.06 37.08,-71.92 80.65,-78.39 43.03,-5.48 98.99,-2.19 128.44,34.44 10.96,14.24 15.32,29.1 17.54,46.67 -0.17,0.46 -0.5,0.69 -1,0.71 -21.99,0.1 -43.98,0.1 -65.97,-0.02 -0.48,-0.07 -0.84,-0.33 -1.05,-0.76 -4.33,-34.84 -49.67,-39.51 -75.53,-27.57 -17.88,9.09 -19.08,33.87 -1.05,43.19 4.67,1.9 9.5,3.24 14.49,4.01 30.04,4.01 65.03,3.05 92.88,15.7 40.32,18.83 47.02,64.94 33.16,103.5 -23.39,53.08 -103.48,55.63 -151.9,45.72 -44.39,-10.45 -71.49,-38.6 -75.45,-84.7 z"
     id="path2"
     style="fill:#ffffff;stroke:none" /><path
     style="fill:#ffffff;fill-opacity:1;stroke:none;stroke-width:1px;stroke-linecap:butt;stroke-linejoin:miter;stroke-opacity:1"
     d="m 84.041528,166.76861 88.596702,88.25197 a 1.5933233,1.5933233 90.00011 0 1 0,2.25769 l -88.419921,88.07521 a 1.6026806,1.6026806 0.05594993 0 1 -2.264317,-0.002 L 64.063558,327.46083 a 1.6023984,1.6023984 89.949084 0 1 -0.002,-2.26411 l 67.952594,-68.19456 a 1.6028855,1.6028855 89.95779 0 0 -0.002,-2.26446 L 63.709661,186.39338 a 1.571971,1.571971 90.515688 0 1 0.02018,-2.24226 l 18.027534,-17.4005 a 1.6312915,1.6312915 0.45114118 0 1 2.284151,0.018 z"
     id="path3" /></svg>
