<?xml version="1.0" encoding="UTF-8" standalone="no"?>
<!-- Generator: Adobe Illustrator 23.0.1, SVG Export Plug-In . SVG Version: 6.00 Build 0)  -->

<svg
   version="1.1"
   id="Livello_1"
   x="0px"
   y="0px"
   viewBox="0 0 1024 1024"
   enable-background="new 0 0 1513.1 500"
   xml:space="preserve"
   sodipodi:docname="Play_SRF.svg"
   width="1024"
   height="1024"
   inkscape:version="1.4 (86a8ad7, 2024-10-11)"
   xmlns:inkscape="http://www.inkscape.org/namespaces/inkscape"
   xmlns:sodipodi="http://sodipodi.sourceforge.net/DTD/sodipodi-0.dtd"
   xmlns="http://www.w3.org/2000/svg"
   xmlns:svg="http://www.w3.org/2000/svg"><defs
   id="defs5">
	
	

		
		
		
		
	</defs><sodipodi:namedview
   id="namedview5"
   pagecolor="#505050"
   bordercolor="#eeeeee"
   borderopacity="1"
   inkscape:showpageshadow="0"
   inkscape:pageopacity="0"
   inkscape:pagecheckerboard="0"
   inkscape:deskcolor="#505050"
   inkscape:zoom="0.56102155"
   inkscape:cx="146.16194"
   inkscape:cy="355.60131"
   inkscape:window-width="2560"
   inkscape:window-height="1351"
   inkscape:window-x="2551"
   inkscape:window-y="-9"
   inkscape:window-maximized="1"
   inkscape:current-layer="Livello_1" />

<rect
   style="fill:#af001e;fill-opacity:1;stroke-width:1.98785;stroke-linecap:round;stroke-linejoin:bevel"
   id="rect5"
   width="1024"
   height="1024"
   x="0"
   y="0" /><path
   id="rect1"
   style="fill:#ffffff;fill-opacity:1;stroke-width:0.77105"
   d="M 215,465 V 850.52539 H 802 V 465 Z m 138.71094,99.54297 c 22.97727,0 41.17361,1.38835 49.42383,2.54492 3.70104,0.53973 5.62957,2.31196 5.08984,6.55273 l -3.4707,21.28126 c -1.07948,6.24549 -3.08231,7.09441 -10.48438,6.55468 -7.09365,-0.61684 -24.98164,-2.00586 -42.63867,-2.00586 -13.03074,0 -26.67969,2.77594 -26.67969,17.58008 0,10.48628 6.55488,15.0353 20.74219,18.73633 l 21.04883,5.39844 c 37.473,9.63812 48.26758,28.14282 48.26758,52.8164 0,42.0222 -32.92393,56.82617 -78.10743,56.82617 -20.1244,10e-6 -40.865,-1.38834 -49.11523,-2.54492 -3.70104,-0.61684 -5.62762,-2.31196 -5.08789,-6.55273 l 3.39258,-21.89844 c 1.15658,-6.2455 3.16135,-7.09442 10.48632,-6.55469 7.09365,0.61684 27.8339,2.31446 39.78516,2.31446 26.13858,0 36.9336,-2.85466 36.9336,-18.73828 -10e-6,-10.79469 -7.32521,-15.88246 -24.67383,-20.43164 l -21.05078,-5.39844 c -27.60357,-7.09366 -43.48633,-24.36418 -43.48633,-53.66406 0,-32.38409 22.74519,-52.81641 69.625,-52.81641 z m 92.91211,1.92773 h 63.3789 c 43.71851,0 63.61328,19.89212 63.61328,55.4375 0,27.52647 -15.57525,40.01865 -29.53125,48.8086 l 41.48243,68.77734 c 4.5492,7.09366 -0.23274,9.63867 -4.24219,9.63867 h -30.91797 c -6.86233,0 -9.09829,-2.00568 -11.95117,-6.86328 l -33.77149,-60.75781 c -2.00472,-3.46972 -2.85351,-5.70767 -2.85351,-8.56055 0,-1.15658 0.3081,-2.85152 1.15625,-6.24414 l 2.85351,-11.95117 c 2.54445,-10.79469 5.39728,-7.09371 13.57032,-10.48633 6.4769,-2.85288 13.03125,-7.4027 13.03125,-21.89844 0,-15.88362 -8.25082,-22.1289 -25.29102,-22.1289 h -26.98633 v 141.17969 c 0,5.62866 -1.6965,7.63281 -7.40234,7.63281 h -26.13867 c -5.70581,0 -7.40235,-1.92705 -7.40235,-7.63281 V 574.10352 c 0,-5.62867 1.69654,-7.63282 7.40235,-7.63282 z m 172.40625,0 h 107.94726 c 5.70576,0 7.40235,1.92705 7.40235,7.63282 v 19.89453 c 0,5.62867 -1.69659,7.63086 -7.40235,7.63086 h -74.40625 v 38.63086 0.0781 h 67.6211 c 5.70577,0 7.40234,1.92704 7.40234,7.63281 v 19.89258 c 0,5.62866 -1.69657,7.63281 -7.40234,7.63281 h -67.6211 v 65.92579 c 0,5.62866 -1.69658,7.63281 -7.40234,7.63281 H 619.0293 c -5.70576,0 -7.40235,-1.92705 -7.40235,-7.63281 V 574.10352 c 0,-5.62867 1.69659,-7.63282 7.40235,-7.63282 z" />
<path
   fill-rule="evenodd"
   clip-rule="evenodd"
   fill="#333333"
   d="M 797.70588,170 751.84214,257.85033 706.16753,170 H 650.4691 l 74.04393,130.02606 v 95.51006 H 776.1452 V 300.02606 L 850,170 Z M 371.40953,208.20402 C 367.81608,197.51824 359.96724,188.3455 348.33582,181.06403 V 180.8749 C 336.51526,173.59344 321.19583,170 302.09382,170 H 215 v 225.53612 h 50.97022 v -86.71557 h 24.87043 c 15.79226,0 29.31497,-1.60759 40.18988,-4.72822 10.87491,-3.12062 19.85852,-7.65972 26.57259,-13.42815 6.90321,-5.86299 11.82056,-12.95532 14.94119,-21.65525 2.93149,-8.51079 4.34995,-18.3455 4.34995,-29.59865 0,-10.11839 -1.89129,-20.52048 -5.48473,-31.20626 z m -105.43931,71.77439 v -81.98735 l 70.16679,41.13552 z M 621.81608,170 h -48.8898 L 507.67684,351.65823 H 435.80789 V 170 h -51.63217 v 92.63196 132.90416 h 157.828 l 18.72375,-54.56368 h 70.73418 l 18.72375,54.56368 h 52.01043 z m -48.51154,129.6478 23.26285,-73.28742 22.50633,73.28742 z"
   id="path1"
   sodipodi:nodetypes="ccccccccccsccsccccssccsscccccccccccccccccccccc"
   style="fill:#ffffff;fill-opacity:1;stroke-width:0.945644" /></svg>
